solid OpenSCAD_Model
  facet normal 0 -1 0
    outer loop
      vertex 10.5665 -1.5 -0.0034999999999998366
      vertex 10.57067113757408 -1.5 0
      vertex 10.5665 -1.5 0
    endloop
  endfacet
  facet normal 0 -1 0
    outer loop
      vertex 10.993186754817271 -1.5 0.35453269859540226
      vertex 11.038318885888915 -1.5 0.3974685512694318
      vertex 11.07776195283193 -1.5 0.44568308403749635
    endloop
  endfacet
  facet normal 0 -1 0
    outer loop
      vertex 10.993186754817271 -1.5 0.35453269859540226
      vertex 11.07776195283193 -1.5 0.44568308403749635
      vertex 11.110903736659116 -1.5 0.4984279308442323
    endloop
  endfacet
  facet normal 0 -1 0
    outer loop
      vertex 10.993186754817271 -1.5 0.35453269859540226
      vertex 11.110903736659116 -1.5 0.4984279308442323
      vertex 11.137229824296103 -1.5 0.5548844079716937
    endloop
  endfacet
  facet normal 0 -1 0
    outer loop
      vertex 10.993186754817271 -1.5 0.35453269859540226
      vertex 11.137229824296103 -1.5 0.5548844079716937
      vertex 11.15633159308854 -1.5 0.6141762213097448
    endloop
  endfacet
  facet normal 0 -1 0
    outer loop
      vertex 10.993186754817271 -1.5 0.35453269859540226
      vertex 11.15633159308854 -1.5 0.6141762213097448
      vertex 11.167912553274087 -1.5 0.6753830678311483
    endloop
  endfacet
  facet normal 0 -1 0
    outer loop
      vertex 10.993186754817271 -1.5 0.35453269859540226
      vertex 11.167912553274087 -1.5 0.6753830678311483
      vertex 11.171792949974002 -1.5 0.7375549201548917
    endloop
  endfacet
  facet normal 0 -1 0
    outer loop
      vertex 10.993186754817271 -1.5 0.35453269859540226
      vertex 11.171792949974002 -1.5 0.7375549201548917
      vertex 11.171792949974002 -1.5 0.9895549201548914
    endloop
  endfacet
  facet normal -1 0 0
    outer loop
      vertex 10.5665 -1.5 -0.0034999999999998366
      vertex 10.5665 -1.5 0
      vertex 10.5665 1.5 -0.0034999999999998366
    endloop
  endfacet
  facet normal 0.6427876096865331 2.971859070068476e-20 -0.7660444431189832
    outer loop
      vertex 10.5665 -1.5 -0.0034999999999998366
      vertex 10.57067113757408 1.5 0
      vertex 10.57067113757408 -1.5 0
    endloop
  endfacet
  facet normal 0.6427876096865379 7.563268415241998e-18 -0.7660444431189792
    outer loop
      vertex 10.575187068890443 -1.5 0.003789316301983092
      vertex 10.993186754817271 1.5 0.35453269859540226
      vertex 10.993186754817271 -1.5 0.35453269859540226
    endloop
  endfacet
  facet normal 0.6892583384839527 -3.88563218020856e-20 -0.7245156608592673
    outer loop
      vertex 10.993186754817271 -1.5 0.35453269859540226
      vertex 11.038318885888915 1.5 0.3974685512694318
      vertex 11.038318885888915 -1.5 0.3974685512694318
    endloop
  endfacet
  facet normal 0.7739981082662266 0 -0.633187909234141
    outer loop
      vertex 11.038318885888915 -1.5 0.3974685512694318
      vertex 11.038318885888915 1.5 0.3974685512694318
      vertex 11.07776195283193 -1.5 0.44568308403749635
    endloop
  endfacet
  facet normal 0.8467241992282792 0 -0.5320320765153446
    outer loop
      vertex 11.07776195283193 -1.5 0.44568308403749635
      vertex 11.07776195283193 1.5 0.44568308403749635
      vertex 11.110903736659116 -1.5 0.4984279308442323
    endloop
  endfacet
  facet normal 0.9063077870366569 0 -0.42261826174068456
    outer loop
      vertex 11.110903736659116 -1.5 0.4984279308442323
      vertex 11.110903736659116 1.5 0.4984279308442323
      vertex 11.137229824296103 -1.5 0.5548844079716937
    endloop
  endfacet
  facet normal 0.951824039861323 0 -0.30664474093333255
    outer loop
      vertex 11.137229824296103 -1.5 0.5548844079716937
      vertex 11.137229824296103 1.5 0.5548844079716937
      vertex 11.15633159308854 -1.5 0.6141762213097448
    endloop
  endfacet
  facet normal 0.9825664732332867 0 -0.18591160716292246
    outer loop
      vertex 11.15633159308854 -1.5 0.6141762213097448
      vertex 11.15633159308854 1.5 0.6141762213097448
      vertex 11.167912553274087 -1.5 0.6753830678311483
    endloop
  endfacet
  facet normal 0.9980579158045314 0 -0.06229283024485769
    outer loop
      vertex 11.167912553274087 -1.5 0.6753830678311483
      vertex 11.167912553274087 1.5 0.6753830678311483
      vertex 11.171792949974002 -1.5 0.7375549201548917
    endloop
  endfacet
  facet normal 0 -1 0
    outer loop
      vertex 10.575187068890443 -1.5 0.003789316301983092
      vertex 10.993186754817271 -1.5 0.35453269859540226
      vertex 10.575187068890443 -1.5 2.2156470965339894
    endloop
  endfacet
  facet normal 0 -1 0
    outer loop
      vertex 10.993186754817271 -1.5 0.35453269859540226
      vertex 11.171792949974002 -1.5 0.9895549201548914
      vertex 10.575187068890443 -1.5 2.2156470965339894
    endloop
  endfacet
  facet normal 1 0 0
    outer loop
      vertex 11.171792949974002 -1.5 0.7375549201548917
      vertex 11.171792949974002 1.5 0.7375549201548917
      vertex 11.171792949974002 -1.5 0.9895549201548914
    endloop
  endfacet
  facet normal 0.8991979823426894 -1.0683188567879654e-17 0.43754198490069063
    outer loop
      vertex 11.171792949974002 -1.5 0.9895549201548914
      vertex 10.575187068890443 1.5 2.2156470965339894
      vertex 10.575187068890443 -1.5 2.2156470965339894
    endloop
  endfacet
  facet normal -1 0 0
    outer loop
      vertex 10.5665 -1.5 0
      vertex 10.5665 1.5 0
      vertex 10.5665 1.5 -0.0034999999999998366
    endloop
  endfacet
  facet normal 0.6427876096865331 0 -0.7660444431189832
    outer loop
      vertex 10.5665 -1.5 -0.0034999999999998366
      vertex 10.5665 1.5 -0.0034999999999998366
      vertex 10.57067113757408 1.5 0
    endloop
  endfacet
  facet normal 0.6427876096865379 0 -0.7660444431189792
    outer loop
      vertex 10.575187068890443 -1.5 0.003789316301983092
      vertex 10.575187068890443 1.5 0.003789316301983092
      vertex 10.993186754817271 1.5 0.35453269859540226
    endloop
  endfacet
  facet normal 0.6892583384839527 0 -0.7245156608592673
    outer loop
      vertex 10.993186754817271 -1.5 0.35453269859540226
      vertex 10.993186754817271 1.5 0.35453269859540226
      vertex 11.038318885888915 1.5 0.3974685512694318
    endloop
  endfacet
  facet normal 0.7739981082662266 0 -0.633187909234141
    outer loop
      vertex 11.07776195283193 -1.5 0.44568308403749635
      vertex 11.038318885888915 1.5 0.3974685512694318
      vertex 11.07776195283193 1.5 0.44568308403749635
    endloop
  endfacet
  facet normal 0.8467241992282792 0 -0.5320320765153446
    outer loop
      vertex 11.110903736659116 -1.5 0.4984279308442323
      vertex 11.07776195283193 1.5 0.44568308403749635
      vertex 11.110903736659116 1.5 0.4984279308442323
    endloop
  endfacet
  facet normal 0.9063077870366569 0 -0.42261826174068456
    outer loop
      vertex 11.137229824296103 -1.5 0.5548844079716937
      vertex 11.110903736659116 1.5 0.4984279308442323
      vertex 11.137229824296103 1.5 0.5548844079716937
    endloop
  endfacet
  facet normal 0.951824039861323 0 -0.30664474093333255
    outer loop
      vertex 11.15633159308854 -1.5 0.6141762213097448
      vertex 11.137229824296103 1.5 0.5548844079716937
      vertex 11.15633159308854 1.5 0.6141762213097448
    endloop
  endfacet
  facet normal 0.9825664732332867 0 -0.18591160716292246
    outer loop
      vertex 11.167912553274087 -1.5 0.6753830678311483
      vertex 11.15633159308854 1.5 0.6141762213097448
      vertex 11.167912553274087 1.5 0.6753830678311483
    endloop
  endfacet
  facet normal 0.9980579158045314 0 -0.06229283024485769
    outer loop
      vertex 11.171792949974002 -1.5 0.7375549201548917
      vertex 11.167912553274087 1.5 0.6753830678311483
      vertex 11.171792949974002 1.5 0.7375549201548917
    endloop
  endfacet
  facet normal 0 1 0
    outer loop
      vertex 10.5665 1.5 -0.0034999999999998366
      vertex 10.5665 1.5 0
      vertex 10.57067113757408 1.5 0
    endloop
  endfacet
  facet normal 0 1 0
    outer loop
      vertex 10.575187068890443 1.5 0.003789316301983092
      vertex 11.171792949974002 1.5 0.9895549201548914
      vertex 10.993186754817271 1.5 0.35453269859540226
    endloop
  endfacet
  facet normal 0 1 0
    outer loop
      vertex 10.993186754817271 1.5 0.35453269859540226
      vertex 11.07776195283193 1.5 0.44568308403749635
      vertex 11.038318885888915 1.5 0.3974685512694318
    endloop
  endfacet
  facet normal 0 1 0
    outer loop
      vertex 10.993186754817271 1.5 0.35453269859540226
      vertex 11.110903736659116 1.5 0.4984279308442323
      vertex 11.07776195283193 1.5 0.44568308403749635
    endloop
  endfacet
  facet normal 0 1 0
    outer loop
      vertex 10.993186754817271 1.5 0.35453269859540226
      vertex 11.137229824296103 1.5 0.5548844079716937
      vertex 11.110903736659116 1.5 0.4984279308442323
    endloop
  endfacet
  facet normal 0 1 0
    outer loop
      vertex 10.993186754817271 1.5 0.35453269859540226
      vertex 11.15633159308854 1.5 0.6141762213097448
      vertex 11.137229824296103 1.5 0.5548844079716937
    endloop
  endfacet
  facet normal 0 1 0
    outer loop
      vertex 10.993186754817271 1.5 0.35453269859540226
      vertex 11.167912553274087 1.5 0.6753830678311483
      vertex 11.15633159308854 1.5 0.6141762213097448
    endloop
  endfacet
  facet normal 0 1 0
    outer loop
      vertex 10.993186754817271 1.5 0.35453269859540226
      vertex 11.171792949974002 1.5 0.7375549201548917
      vertex 11.167912553274087 1.5 0.6753830678311483
    endloop
  endfacet
  facet normal 0 1 0
    outer loop
      vertex 10.993186754817271 1.5 0.35453269859540226
      vertex 11.171792949974002 1.5 0.9895549201548914
      vertex 11.171792949974002 1.5 0.7375549201548917
    endloop
  endfacet
  facet normal 1 0 0
    outer loop
      vertex 11.171792949974002 -1.5 0.9895549201548914
      vertex 11.171792949974002 1.5 0.7375549201548917
      vertex 11.171792949974002 1.5 0.9895549201548914
    endloop
  endfacet
  facet normal 0.8991979823426894 0 0.43754198490069063
    outer loop
      vertex 11.171792949974002 -1.5 0.9895549201548914
      vertex 11.171792949974002 1.5 0.9895549201548914
      vertex 10.575187068890443 1.5 2.2156470965339894
    endloop
  endfacet
  facet normal 0 1 0
    outer loop
      vertex 10.575187068890443 1.5 0.003789316301983092
      vertex 10.575187068890443 1.5 2.2156470965339894
      vertex 11.171792949974002 1.5 0.9895549201548914
    endloop
  endfacet
  facet normal 0 -1 0
    outer loop
      vertex -10.57067113757408 -1.5 0
      vertex -10.5665 -1.5 -0.0034999999999998366
      vertex -10.5665 -1.5 0
    endloop
  endfacet
  facet normal 0 -1 0
    outer loop
      vertex -10.993186754817271 -1.5 0.35453269859540226
      vertex -11.07776195283193 -1.5 0.44568308403749635
      vertex -11.038318885888915 -1.5 0.3974685512694318
    endloop
  endfacet
  facet normal 0 -1 0
    outer loop
      vertex -10.993186754817271 -1.5 0.35453269859540226
      vertex -11.110903736659116 -1.5 0.4984279308442323
      vertex -11.07776195283193 -1.5 0.44568308403749635
    endloop
  endfacet
  facet normal 0 -1 0
    outer loop
      vertex -10.993186754817271 -1.5 0.35453269859540226
      vertex -11.137229824296103 -1.5 0.5548844079716937
      vertex -11.110903736659116 -1.5 0.4984279308442323
    endloop
  endfacet
  facet normal 0 -1 0
    outer loop
      vertex -10.993186754817271 -1.5 0.35453269859540226
      vertex -10.575187068890443 -1.5 0.003789316301983092
      vertex -11.171792949974002 -1.5 0.9895549201548914
    endloop
  endfacet
  facet normal 0 -1 0
    outer loop
      vertex -10.993186754817271 -1.5 0.35453269859540226
      vertex -11.15633159308854 -1.5 0.6141762213097448
      vertex -11.137229824296103 -1.5 0.5548844079716937
    endloop
  endfacet
  facet normal 0 -1 0
    outer loop
      vertex -10.993186754817271 -1.5 0.35453269859540226
      vertex -11.167912553274087 -1.5 0.6753830678311483
      vertex -11.15633159308854 -1.5 0.6141762213097448
    endloop
  endfacet
  facet normal 0 -1 0
    outer loop
      vertex -10.993186754817271 -1.5 0.35453269859540226
      vertex -11.171792949974002 -1.5 0.7375549201548917
      vertex -11.167912553274087 -1.5 0.6753830678311483
    endloop
  endfacet
  facet normal 0 -1 0
    outer loop
      vertex -10.993186754817271 -1.5 0.35453269859540226
      vertex -11.171792949974002 -1.5 0.9895549201548914
      vertex -11.171792949974002 -1.5 0.7375549201548917
    endloop
  endfacet
  facet normal -0.6892583384839527 0 -0.7245156608592673
    outer loop
      vertex -10.993186754817271 -1.5 0.35453269859540226
      vertex -11.038318885888915 -1.5 0.3974685512694318
      vertex -10.993186754817271 1.5 0.35453269859540226
    endloop
  endfacet
  facet normal -0.6427876096865331 -2.971859070068476e-20 -0.7660444431189832
    outer loop
      vertex -10.57067113757408 -1.5 0
      vertex -10.5665 1.5 -0.0034999999999998366
      vertex -10.5665 -1.5 -0.0034999999999998366
    endloop
  endfacet
  facet normal 1 0 0
    outer loop
      vertex -10.5665 -1.5 -0.0034999999999998366
      vertex -10.5665 1.5 0
      vertex -10.5665 -1.5 0
    endloop
  endfacet
  facet normal -0.6427876096865379 -7.563268415241998e-18 -0.7660444431189792
    outer loop
      vertex -10.993186754817271 -1.5 0.35453269859540226
      vertex -10.575187068890443 1.5 0.003789316301983092
      vertex -10.575187068890443 -1.5 0.003789316301983092
    endloop
  endfacet
  facet normal -0.7739981082662266 -2.2297343205054415e-19 -0.633187909234141
    outer loop
      vertex -11.038318885888915 -1.5 0.3974685512694318
      vertex -11.07776195283193 -1.5 0.44568308403749635
      vertex -11.07776195283193 1.5 0.44568308403749635
    endloop
  endfacet
  facet normal -0.8467241992282792 -5.473466560936083e-19 -0.5320320765153446
    outer loop
      vertex -11.07776195283193 -1.5 0.44568308403749635
      vertex -11.110903736659116 -1.5 0.4984279308442323
      vertex -11.110903736659116 1.5 0.4984279308442323
    endloop
  endfacet
  facet normal -0.9063077870366569 5.886175947338914e-20 -0.42261826174068456
    outer loop
      vertex -11.110903736659116 -1.5 0.4984279308442323
      vertex -11.137229824296103 -1.5 0.5548844079716937
      vertex -11.137229824296103 1.5 0.5548844079716937
    endloop
  endfacet
  facet normal -0.951824039861323 5.20260170885762e-19 -0.30664474093333255
    outer loop
      vertex -11.137229824296103 -1.5 0.5548844079716937
      vertex -11.15633159308854 -1.5 0.6141762213097448
      vertex -11.15633159308854 1.5 0.6141762213097448
    endloop
  endfacet
  facet normal -0.9825664732332867 4.3789012272680114e-20 -0.18591160716292246
    outer loop
      vertex -11.15633159308854 -1.5 0.6141762213097448
      vertex -11.167912553274087 -1.5 0.6753830678311483
      vertex -11.167912553274087 1.5 0.6753830678311483
    endloop
  endfacet
  facet normal -0.9980579158045314 -1.7963141809765866e-20 -0.06229283024485769
    outer loop
      vertex -11.167912553274087 -1.5 0.6753830678311483
      vertex -11.171792949974002 -1.5 0.7375549201548917
      vertex -11.171792949974002 1.5 0.7375549201548917
    endloop
  endfacet
  facet normal 0 -1 0
    outer loop
      vertex -10.575187068890443 -1.5 0.003789316301983092
      vertex -10.575187068890443 -1.5 2.2156470965339894
      vertex -11.171792949974002 -1.5 0.9895549201548914
    endloop
  endfacet
  facet normal -1 0 0
    outer loop
      vertex -11.171792949974002 -1.5 0.7375549201548917
      vertex -11.171792949974002 -1.5 0.9895549201548914
      vertex -11.171792949974002 1.5 0.9895549201548914
    endloop
  endfacet
  facet normal -0.8991979823426894 0 0.43754198490069063
    outer loop
      vertex -11.171792949974002 -1.5 0.9895549201548914
      vertex -10.575187068890443 -1.5 2.2156470965339894
      vertex -11.171792949974002 1.5 0.9895549201548914
    endloop
  endfacet
  facet normal -0.6427876096865379 0 -0.7660444431189792
    outer loop
      vertex -10.993186754817271 -1.5 0.35453269859540226
      vertex -10.993186754817271 1.5 0.35453269859540226
      vertex -10.575187068890443 1.5 0.003789316301983092
    endloop
  endfacet
  facet normal -0.6892583384839527 0 -0.7245156608592673
    outer loop
      vertex -11.038318885888915 -1.5 0.3974685512694318
      vertex -11.038318885888915 1.5 0.3974685512694318
      vertex -10.993186754817271 1.5 0.35453269859540226
    endloop
  endfacet
  facet normal -0.6427876096865331 0 -0.7660444431189832
    outer loop
      vertex -10.57067113757408 -1.5 0
      vertex -10.57067113757408 1.5 0
      vertex -10.5665 1.5 -0.0034999999999998366
    endloop
  endfacet
  facet normal 1 0 0
    outer loop
      vertex -10.5665 -1.5 -0.0034999999999998366
      vertex -10.5665 1.5 -0.0034999999999998366
      vertex -10.5665 1.5 0
    endloop
  endfacet
  facet normal -0.7739981082662266 0 -0.633187909234141
    outer loop
      vertex -11.038318885888915 -1.5 0.3974685512694318
      vertex -11.07776195283193 1.5 0.44568308403749635
      vertex -11.038318885888915 1.5 0.3974685512694318
    endloop
  endfacet
  facet normal -0.8467241992282792 0 -0.5320320765153446
    outer loop
      vertex -11.07776195283193 -1.5 0.44568308403749635
      vertex -11.110903736659116 1.5 0.4984279308442323
      vertex -11.07776195283193 1.5 0.44568308403749635
    endloop
  endfacet
  facet normal -0.9063077870366569 0 -0.42261826174068456
    outer loop
      vertex -11.110903736659116 -1.5 0.4984279308442323
      vertex -11.137229824296103 1.5 0.5548844079716937
      vertex -11.110903736659116 1.5 0.4984279308442323
    endloop
  endfacet
  facet normal -0.951824039861323 0 -0.30664474093333255
    outer loop
      vertex -11.137229824296103 -1.5 0.5548844079716937
      vertex -11.15633159308854 1.5 0.6141762213097448
      vertex -11.137229824296103 1.5 0.5548844079716937
    endloop
  endfacet
  facet normal -0.9825664732332867 0 -0.18591160716292246
    outer loop
      vertex -11.15633159308854 -1.5 0.6141762213097448
      vertex -11.167912553274087 1.5 0.6753830678311483
      vertex -11.15633159308854 1.5 0.6141762213097448
    endloop
  endfacet
  facet normal -0.9980579158045314 0 -0.06229283024485769
    outer loop
      vertex -11.167912553274087 -1.5 0.6753830678311483
      vertex -11.171792949974002 1.5 0.7375549201548917
      vertex -11.167912553274087 1.5 0.6753830678311483
    endloop
  endfacet
  facet normal 0 1 0
    outer loop
      vertex -10.57067113757408 1.5 0
      vertex -10.5665 1.5 0
      vertex -10.5665 1.5 -0.0034999999999998366
    endloop
  endfacet
  facet normal 0 1 0
    outer loop
      vertex -10.993186754817271 1.5 0.35453269859540226
      vertex -11.038318885888915 1.5 0.3974685512694318
      vertex -11.07776195283193 1.5 0.44568308403749635
    endloop
  endfacet
  facet normal 0 1 0
    outer loop
      vertex -10.993186754817271 1.5 0.35453269859540226
      vertex -11.07776195283193 1.5 0.44568308403749635
      vertex -11.110903736659116 1.5 0.4984279308442323
    endloop
  endfacet
  facet normal 0 1 0
    outer loop
      vertex -10.993186754817271 1.5 0.35453269859540226
      vertex -11.110903736659116 1.5 0.4984279308442323
      vertex -11.137229824296103 1.5 0.5548844079716937
    endloop
  endfacet
  facet normal 0 1 0
    outer loop
      vertex -10.993186754817271 1.5 0.35453269859540226
      vertex -11.137229824296103 1.5 0.5548844079716937
      vertex -11.15633159308854 1.5 0.6141762213097448
    endloop
  endfacet
  facet normal 0 1 0
    outer loop
      vertex -10.993186754817271 1.5 0.35453269859540226
      vertex -11.15633159308854 1.5 0.6141762213097448
      vertex -11.167912553274087 1.5 0.6753830678311483
    endloop
  endfacet
  facet normal 0 1 0
    outer loop
      vertex -10.993186754817271 1.5 0.35453269859540226
      vertex -11.167912553274087 1.5 0.6753830678311483
      vertex -11.171792949974002 1.5 0.7375549201548917
    endloop
  endfacet
  facet normal 0 1 0
    outer loop
      vertex -10.993186754817271 1.5 0.35453269859540226
      vertex -11.171792949974002 1.5 0.7375549201548917
      vertex -11.171792949974002 1.5 0.9895549201548914
    endloop
  endfacet
  facet normal -1 0 0
    outer loop
      vertex -11.171792949974002 -1.5 0.7375549201548917
      vertex -11.171792949974002 1.5 0.9895549201548914
      vertex -11.171792949974002 1.5 0.7375549201548917
    endloop
  endfacet
  facet normal 0 1 0
    outer loop
      vertex -10.993186754817271 1.5 0.35453269859540226
      vertex -10.575187068890443 1.5 2.2156470965339894
      vertex -10.575187068890443 1.5 0.003789316301983092
    endloop
  endfacet
  facet normal 0 1 0
    outer loop
      vertex -10.993186754817271 1.5 0.35453269859540226
      vertex -11.171792949974002 1.5 0.9895549201548914
      vertex -10.575187068890443 1.5 2.2156470965339894
    endloop
  endfacet
  facet normal -0.8991979823426894 0 0.43754198490069063
    outer loop
      vertex -10.575187068890443 -1.5 2.2156470965339894
      vertex -10.575187068890443 1.5 2.2156470965339894
      vertex -11.171792949974002 1.5 0.9895549201548914
    endloop
  endfacet
  facet normal -1 0 0
    outer loop
      vertex -1.5 -10.57067113757408 0
      vertex -1.5 -10.5665 0
      vertex -1.5 -10.5665 -0.0034999999999998366
    endloop
  endfacet
  facet normal -1 0 0
    outer loop
      vertex -1.5 -10.993186754817271 0.35453269859540226
      vertex -1.5 -11.038318885888915 0.3974685512694318
      vertex -1.5 -11.171792949974002 0.7375549201548917
    endloop
  endfacet
  facet normal -1 0 0
    outer loop
      vertex -1.5 -11.038318885888915 0.3974685512694318
      vertex -1.5 -11.07776195283193 0.44568308403749635
      vertex -1.5 -11.171792949974002 0.7375549201548917
    endloop
  endfacet
  facet normal -1 0 0
    outer loop
      vertex -1.5 -11.07776195283193 0.44568308403749635
      vertex -1.5 -11.110903736659116 0.4984279308442323
      vertex -1.5 -11.171792949974002 0.7375549201548917
    endloop
  endfacet
  facet normal -1 0 0
    outer loop
      vertex -1.5 -11.110903736659116 0.4984279308442323
      vertex -1.5 -11.137229824296103 0.5548844079716937
      vertex -1.5 -11.171792949974002 0.7375549201548917
    endloop
  endfacet
  facet normal -1 0 0
    outer loop
      vertex -1.5 -11.137229824296103 0.5548844079716937
      vertex -1.5 -11.15633159308854 0.6141762213097448
      vertex -1.5 -11.171792949974002 0.7375549201548917
    endloop
  endfacet
  facet normal -1 0 0
    outer loop
      vertex -1.5 -11.15633159308854 0.6141762213097448
      vertex -1.5 -11.167912553274087 0.6753830678311483
      vertex -1.5 -11.171792949974002 0.7375549201548917
    endloop
  endfacet
  facet normal -1 0 0
    outer loop
      vertex -1.5 -10.993186754817271 0.35453269859540226
      vertex -1.5 -11.171792949974002 0.7375549201548917
      vertex -1.5 -11.171792949974002 0.9895549201548914
    endloop
  endfacet
  facet normal 0 -0.6427876096865379 -0.7660444431189792
    outer loop
      vertex -1.5 -10.993186754817271 0.35453269859540226
      vertex -1.5 -10.575187068890443 0.003789316301983092
      vertex 1.5 -10.993186754817271 0.35453269859540226
    endloop
  endfacet
  facet normal 0 -0.6892583384839527 -0.7245156608592673
    outer loop
      vertex -1.5 -10.993186754817271 0.35453269859540226
      vertex 1.5 -10.993186754817271 0.35453269859540226
      vertex -1.5 -11.038318885888915 0.3974685512694318
    endloop
  endfacet
  facet normal 0 -0.6427876096865331 -0.7660444431189832
    outer loop
      vertex -1.5 -10.57067113757408 0
      vertex -1.5 -10.5665 -0.0034999999999998366
      vertex 1.5 -10.57067113757408 0
    endloop
  endfacet
  facet normal 0 1 0
    outer loop
      vertex -1.5 -10.5665 -0.0034999999999998366
      vertex -1.5 -10.5665 0
      vertex 1.5 -10.5665 -0.0034999999999998366
    endloop
  endfacet
  facet normal -2.2297343205054415e-19 -0.7739981082662266 -0.633187909234141
    outer loop
      vertex -1.5 -11.038318885888915 0.3974685512694318
      vertex 1.5 -11.07776195283193 0.44568308403749635
      vertex -1.5 -11.07776195283193 0.44568308403749635
    endloop
  endfacet
  facet normal -5.473466560936083e-19 -0.8467241992282792 -0.5320320765153446
    outer loop
      vertex -1.5 -11.07776195283193 0.44568308403749635
      vertex 1.5 -11.110903736659116 0.4984279308442323
      vertex -1.5 -11.110903736659116 0.4984279308442323
    endloop
  endfacet
  facet normal 5.886175947338914e-20 -0.9063077870366569 -0.42261826174068456
    outer loop
      vertex -1.5 -11.110903736659116 0.4984279308442323
      vertex 1.5 -11.137229824296103 0.5548844079716937
      vertex -1.5 -11.137229824296103 0.5548844079716937
    endloop
  endfacet
  facet normal 5.20260170885762e-19 -0.951824039861323 -0.30664474093333255
    outer loop
      vertex -1.5 -11.137229824296103 0.5548844079716937
      vertex 1.5 -11.15633159308854 0.6141762213097448
      vertex -1.5 -11.15633159308854 0.6141762213097448
    endloop
  endfacet
  facet normal 4.3789012272680114e-20 -0.9825664732332867 -0.18591160716292246
    outer loop
      vertex -1.5 -11.15633159308854 0.6141762213097448
      vertex 1.5 -11.167912553274087 0.6753830678311483
      vertex -1.5 -11.167912553274087 0.6753830678311483
    endloop
  endfacet
  facet normal -1.7963141809765866e-20 -0.9980579158045314 -0.06229283024485769
    outer loop
      vertex -1.5 -11.167912553274087 0.6753830678311483
      vertex 1.5 -11.171792949974002 0.7375549201548917
      vertex -1.5 -11.171792949974002 0.7375549201548917
    endloop
  endfacet
  facet normal -1 0 0
    outer loop
      vertex -1.5 -10.993186754817271 0.35453269859540226
      vertex -1.5 -10.575187068890443 2.2156470965339894
      vertex -1.5 -10.575187068890443 0.003789316301983092
    endloop
  endfacet
  facet normal -1 0 0
    outer loop
      vertex -1.5 -10.993186754817271 0.35453269859540226
      vertex -1.5 -11.171792949974002 0.9895549201548914
      vertex -1.5 -10.575187068890443 2.2156470965339894
    endloop
  endfacet
  facet normal 0 -1 0
    outer loop
      vertex -1.5 -11.171792949974002 0.7375549201548917
      vertex 1.5 -11.171792949974002 0.9895549201548914
      vertex -1.5 -11.171792949974002 0.9895549201548914
    endloop
  endfacet
  facet normal 1.0683188567879654e-17 -0.8991979823426894 0.43754198490069063
    outer loop
      vertex -1.5 -11.171792949974002 0.9895549201548914
      vertex 1.5 -10.575187068890443 2.2156470965339894
      vertex -1.5 -10.575187068890443 2.2156470965339894
    endloop
  endfacet
  facet normal 0 -0.6892583384839527 -0.7245156608592673
    outer loop
      vertex -1.5 -11.038318885888915 0.3974685512694318
      vertex 1.5 -10.993186754817271 0.35453269859540226
      vertex 1.5 -11.038318885888915 0.3974685512694318
    endloop
  endfacet
  facet normal 0 -0.6427876096865331 -0.7660444431189832
    outer loop
      vertex -1.5 -10.5665 -0.0034999999999998366
      vertex 1.5 -10.5665 -0.0034999999999998366
      vertex 1.5 -10.57067113757408 0
    endloop
  endfacet
  facet normal 0 1 0
    outer loop
      vertex -1.5 -10.5665 0
      vertex 1.5 -10.5665 0
      vertex 1.5 -10.5665 -0.0034999999999998366
    endloop
  endfacet
  facet normal 0 -0.6427876096865379 -0.7660444431189792
    outer loop
      vertex -1.5 -10.575187068890443 0.003789316301983092
      vertex 1.5 -10.575187068890443 0.003789316301983092
      vertex 1.5 -10.993186754817271 0.35453269859540226
    endloop
  endfacet
  facet normal 0 -0.7739981082662266 -0.633187909234141
    outer loop
      vertex -1.5 -11.038318885888915 0.3974685512694318
      vertex 1.5 -11.038318885888915 0.3974685512694318
      vertex 1.5 -11.07776195283193 0.44568308403749635
    endloop
  endfacet
  facet normal 0 -0.8467241992282792 -0.5320320765153446
    outer loop
      vertex -1.5 -11.07776195283193 0.44568308403749635
      vertex 1.5 -11.07776195283193 0.44568308403749635
      vertex 1.5 -11.110903736659116 0.4984279308442323
    endloop
  endfacet
  facet normal 0 -0.9063077870366569 -0.42261826174068456
    outer loop
      vertex -1.5 -11.110903736659116 0.4984279308442323
      vertex 1.5 -11.110903736659116 0.4984279308442323
      vertex 1.5 -11.137229824296103 0.5548844079716937
    endloop
  endfacet
  facet normal 0 -0.951824039861323 -0.30664474093333255
    outer loop
      vertex -1.5 -11.137229824296103 0.5548844079716937
      vertex 1.5 -11.137229824296103 0.5548844079716937
      vertex 1.5 -11.15633159308854 0.6141762213097448
    endloop
  endfacet
  facet normal 0 -0.9825664732332867 -0.18591160716292246
    outer loop
      vertex -1.5 -11.15633159308854 0.6141762213097448
      vertex 1.5 -11.15633159308854 0.6141762213097448
      vertex 1.5 -11.167912553274087 0.6753830678311483
    endloop
  endfacet
  facet normal 0 -0.9980579158045314 -0.06229283024485769
    outer loop
      vertex -1.5 -11.167912553274087 0.6753830678311483
      vertex 1.5 -11.167912553274087 0.6753830678311483
      vertex 1.5 -11.171792949974002 0.7375549201548917
    endloop
  endfacet
  facet normal 1 0 0
    outer loop
      vertex 1.5 -10.57067113757408 0
      vertex 1.5 -10.5665 -0.0034999999999998366
      vertex 1.5 -10.5665 0
    endloop
  endfacet
  facet normal 1 0 0
    outer loop
      vertex 1.5 -10.993186754817271 0.35453269859540226
      vertex 1.5 -10.575187068890443 0.003789316301983092
      vertex 1.5 -11.171792949974002 0.9895549201548914
    endloop
  endfacet
  facet normal 1 0 0
    outer loop
      vertex 1.5 -10.993186754817271 0.35453269859540226
      vertex 1.5 -11.171792949974002 0.7375549201548917
      vertex 1.5 -11.038318885888915 0.3974685512694318
    endloop
  endfacet
  facet normal 1 0 0
    outer loop
      vertex 1.5 -11.038318885888915 0.3974685512694318
      vertex 1.5 -11.171792949974002 0.7375549201548917
      vertex 1.5 -11.07776195283193 0.44568308403749635
    endloop
  endfacet
  facet normal 1 0 0
    outer loop
      vertex 1.5 -11.07776195283193 0.44568308403749635
      vertex 1.5 -11.171792949974002 0.7375549201548917
      vertex 1.5 -11.110903736659116 0.4984279308442323
    endloop
  endfacet
  facet normal 1 0 0
    outer loop
      vertex 1.5 -11.110903736659116 0.4984279308442323
      vertex 1.5 -11.171792949974002 0.7375549201548917
      vertex 1.5 -11.137229824296103 0.5548844079716937
    endloop
  endfacet
  facet normal 1 0 0
    outer loop
      vertex 1.5 -11.137229824296103 0.5548844079716937
      vertex 1.5 -11.171792949974002 0.7375549201548917
      vertex 1.5 -11.15633159308854 0.6141762213097448
    endloop
  endfacet
  facet normal 1 0 0
    outer loop
      vertex 1.5 -11.15633159308854 0.6141762213097448
      vertex 1.5 -11.171792949974002 0.7375549201548917
      vertex 1.5 -11.167912553274087 0.6753830678311483
    endloop
  endfacet
  facet normal 1 0 0
    outer loop
      vertex 1.5 -10.993186754817271 0.35453269859540226
      vertex 1.5 -11.171792949974002 0.9895549201548914
      vertex 1.5 -11.171792949974002 0.7375549201548917
    endloop
  endfacet
  facet normal 0 -1 0
    outer loop
      vertex -1.5 -11.171792949974002 0.7375549201548917
      vertex 1.5 -11.171792949974002 0.7375549201548917
      vertex 1.5 -11.171792949974002 0.9895549201548914
    endloop
  endfacet
  facet normal 0 -0.8991979823426894 0.43754198490069063
    outer loop
      vertex -1.5 -11.171792949974002 0.9895549201548914
      vertex 1.5 -11.171792949974002 0.9895549201548914
      vertex 1.5 -10.575187068890443 2.2156470965339894
    endloop
  endfacet
  facet normal 1 0 0
    outer loop
      vertex 1.5 -10.575187068890443 0.003789316301983092
      vertex 1.5 -10.575187068890443 2.2156470965339894
      vertex 1.5 -11.171792949974002 0.9895549201548914
    endloop
  endfacet
  facet normal -1 0 0
    outer loop
      vertex -1.5 10.5665 -0.0034999999999998366
      vertex -1.5 10.5665 0
      vertex -1.5 10.57067113757408 0
    endloop
  endfacet
  facet normal -1 0 0
    outer loop
      vertex -1.5 10.575187068890443 0.003789316301983092
      vertex -1.5 11.171792949974002 0.9895549201548914
      vertex -1.5 10.993186754817271 0.35453269859540226
    endloop
  endfacet
  facet normal -1 0 0
    outer loop
      vertex -1.5 10.993186754817271 0.35453269859540226
      vertex -1.5 11.07776195283193 0.44568308403749635
      vertex -1.5 11.038318885888915 0.3974685512694318
    endloop
  endfacet
  facet normal -1 0 0
    outer loop
      vertex -1.5 10.993186754817271 0.35453269859540226
      vertex -1.5 11.110903736659116 0.4984279308442323
      vertex -1.5 11.07776195283193 0.44568308403749635
    endloop
  endfacet
  facet normal -1 0 0
    outer loop
      vertex -1.5 10.993186754817271 0.35453269859540226
      vertex -1.5 11.137229824296103 0.5548844079716937
      vertex -1.5 11.110903736659116 0.4984279308442323
    endloop
  endfacet
  facet normal -1 0 0
    outer loop
      vertex -1.5 10.993186754817271 0.35453269859540226
      vertex -1.5 11.15633159308854 0.6141762213097448
      vertex -1.5 11.137229824296103 0.5548844079716937
    endloop
  endfacet
  facet normal -1 0 0
    outer loop
      vertex -1.5 10.993186754817271 0.35453269859540226
      vertex -1.5 11.167912553274087 0.6753830678311483
      vertex -1.5 11.15633159308854 0.6141762213097448
    endloop
  endfacet
  facet normal -1 0 0
    outer loop
      vertex -1.5 10.993186754817271 0.35453269859540226
      vertex -1.5 11.171792949974002 0.7375549201548917
      vertex -1.5 11.167912553274087 0.6753830678311483
    endloop
  endfacet
  facet normal -1 0 0
    outer loop
      vertex -1.5 10.993186754817271 0.35453269859540226
      vertex -1.5 11.171792949974002 0.9895549201548914
      vertex -1.5 11.171792949974002 0.7375549201548917
    endloop
  endfacet
  facet normal 0 -1 0
    outer loop
      vertex -1.5 10.5665 -0.0034999999999998366
      vertex 1.5 10.5665 0
      vertex -1.5 10.5665 0
    endloop
  endfacet
  facet normal 0 0.6427876096865331 -0.7660444431189832
    outer loop
      vertex -1.5 10.5665 -0.0034999999999998366
      vertex -1.5 10.57067113757408 0
      vertex 1.5 10.5665 -0.0034999999999998366
    endloop
  endfacet
  facet normal 0 0.6427876096865379 -0.7660444431189792
    outer loop
      vertex -1.5 10.575187068890443 0.003789316301983092
      vertex -1.5 10.993186754817271 0.35453269859540226
      vertex 1.5 10.575187068890443 0.003789316301983092
    endloop
  endfacet
  facet normal -3.88563218020856e-20 0.6892583384839527 -0.7245156608592673
    outer loop
      vertex -1.5 10.993186754817271 0.35453269859540226
      vertex -1.5 11.038318885888915 0.3974685512694318
      vertex 1.5 11.038318885888915 0.3974685512694318
    endloop
  endfacet
  facet normal 0 0.7739981082662266 -0.633187909234141
    outer loop
      vertex -1.5 11.038318885888915 0.3974685512694318
      vertex -1.5 11.07776195283193 0.44568308403749635
      vertex 1.5 11.038318885888915 0.3974685512694318
    endloop
  endfacet
  facet normal 0 0.8467241992282792 -0.5320320765153446
    outer loop
      vertex -1.5 11.07776195283193 0.44568308403749635
      vertex -1.5 11.110903736659116 0.4984279308442323
      vertex 1.5 11.07776195283193 0.44568308403749635
    endloop
  endfacet
  facet normal 0 0.9063077870366569 -0.42261826174068456
    outer loop
      vertex -1.5 11.110903736659116 0.4984279308442323
      vertex -1.5 11.137229824296103 0.5548844079716937
      vertex 1.5 11.110903736659116 0.4984279308442323
    endloop
  endfacet
  facet normal 0 0.951824039861323 -0.30664474093333255
    outer loop
      vertex -1.5 11.137229824296103 0.5548844079716937
      vertex -1.5 11.15633159308854 0.6141762213097448
      vertex 1.5 11.137229824296103 0.5548844079716937
    endloop
  endfacet
  facet normal 0 0.9825664732332867 -0.18591160716292246
    outer loop
      vertex -1.5 11.15633159308854 0.6141762213097448
      vertex -1.5 11.167912553274087 0.6753830678311483
      vertex 1.5 11.15633159308854 0.6141762213097448
    endloop
  endfacet
  facet normal 0 0.9980579158045314 -0.06229283024485769
    outer loop
      vertex -1.5 11.167912553274087 0.6753830678311483
      vertex -1.5 11.171792949974002 0.7375549201548917
      vertex 1.5 11.167912553274087 0.6753830678311483
    endloop
  endfacet
  facet normal -1 0 0
    outer loop
      vertex -1.5 10.575187068890443 0.003789316301983092
      vertex -1.5 10.575187068890443 2.2156470965339894
      vertex -1.5 11.171792949974002 0.9895549201548914
    endloop
  endfacet
  facet normal 0 1 0
    outer loop
      vertex -1.5 11.171792949974002 0.7375549201548917
      vertex -1.5 11.171792949974002 0.9895549201548914
      vertex 1.5 11.171792949974002 0.7375549201548917
    endloop
  endfacet
  facet normal 0 0.8991979823426894 0.43754198490069063
    outer loop
      vertex -1.5 11.171792949974002 0.9895549201548914
      vertex -1.5 10.575187068890443 2.2156470965339894
      vertex 1.5 11.171792949974002 0.9895549201548914
    endloop
  endfacet
  facet normal 0 -1 0
    outer loop
      vertex -1.5 10.5665 -0.0034999999999998366
      vertex 1.5 10.5665 -0.0034999999999998366
      vertex 1.5 10.5665 0
    endloop
  endfacet
  facet normal 0 0.6427876096865331 -0.7660444431189832
    outer loop
      vertex -1.5 10.57067113757408 0
      vertex 1.5 10.57067113757408 0
      vertex 1.5 10.5665 -0.0034999999999998366
    endloop
  endfacet
  facet normal 0 0.6427876096865379 -0.7660444431189792
    outer loop
      vertex -1.5 10.993186754817271 0.35453269859540226
      vertex 1.5 10.993186754817271 0.35453269859540226
      vertex 1.5 10.575187068890443 0.003789316301983092
    endloop
  endfacet
  facet normal 0 0.6892583384839527 -0.7245156608592673
    outer loop
      vertex -1.5 10.993186754817271 0.35453269859540226
      vertex 1.5 11.038318885888915 0.3974685512694318
      vertex 1.5 10.993186754817271 0.35453269859540226
    endloop
  endfacet
  facet normal 0 0.7739981082662266 -0.633187909234141
    outer loop
      vertex -1.5 11.07776195283193 0.44568308403749635
      vertex 1.5 11.07776195283193 0.44568308403749635
      vertex 1.5 11.038318885888915 0.3974685512694318
    endloop
  endfacet
  facet normal 0 0.8467241992282792 -0.5320320765153446
    outer loop
      vertex -1.5 11.110903736659116 0.4984279308442323
      vertex 1.5 11.110903736659116 0.4984279308442323
      vertex 1.5 11.07776195283193 0.44568308403749635
    endloop
  endfacet
  facet normal 0 0.9063077870366569 -0.42261826174068456
    outer loop
      vertex -1.5 11.137229824296103 0.5548844079716937
      vertex 1.5 11.137229824296103 0.5548844079716937
      vertex 1.5 11.110903736659116 0.4984279308442323
    endloop
  endfacet
  facet normal 0 0.951824039861323 -0.30664474093333255
    outer loop
      vertex -1.5 11.15633159308854 0.6141762213097448
      vertex 1.5 11.15633159308854 0.6141762213097448
      vertex 1.5 11.137229824296103 0.5548844079716937
    endloop
  endfacet
  facet normal 0 0.9825664732332867 -0.18591160716292246
    outer loop
      vertex -1.5 11.167912553274087 0.6753830678311483
      vertex 1.5 11.167912553274087 0.6753830678311483
      vertex 1.5 11.15633159308854 0.6141762213097448
    endloop
  endfacet
  facet normal 0 0.9980579158045314 -0.06229283024485769
    outer loop
      vertex -1.5 11.171792949974002 0.7375549201548917
      vertex 1.5 11.171792949974002 0.7375549201548917
      vertex 1.5 11.167912553274087 0.6753830678311483
    endloop
  endfacet
  facet normal 1 0 0
    outer loop
      vertex 1.5 10.5665 -0.0034999999999998366
      vertex 1.5 10.57067113757408 0
      vertex 1.5 10.5665 0
    endloop
  endfacet
  facet normal 1 0 0
    outer loop
      vertex 1.5 10.993186754817271 0.35453269859540226
      vertex 1.5 11.038318885888915 0.3974685512694318
      vertex 1.5 11.07776195283193 0.44568308403749635
    endloop
  endfacet
  facet normal 1 0 0
    outer loop
      vertex 1.5 10.993186754817271 0.35453269859540226
      vertex 1.5 11.07776195283193 0.44568308403749635
      vertex 1.5 11.110903736659116 0.4984279308442323
    endloop
  endfacet
  facet normal 1 0 0
    outer loop
      vertex 1.5 10.993186754817271 0.35453269859540226
      vertex 1.5 11.110903736659116 0.4984279308442323
      vertex 1.5 11.137229824296103 0.5548844079716937
    endloop
  endfacet
  facet normal 1 0 0
    outer loop
      vertex 1.5 10.993186754817271 0.35453269859540226
      vertex 1.5 11.137229824296103 0.5548844079716937
      vertex 1.5 11.15633159308854 0.6141762213097448
    endloop
  endfacet
  facet normal 1 0 0
    outer loop
      vertex 1.5 10.993186754817271 0.35453269859540226
      vertex 1.5 11.15633159308854 0.6141762213097448
      vertex 1.5 11.167912553274087 0.6753830678311483
    endloop
  endfacet
  facet normal 1 0 0
    outer loop
      vertex 1.5 10.993186754817271 0.35453269859540226
      vertex 1.5 11.167912553274087 0.6753830678311483
      vertex 1.5 11.171792949974002 0.7375549201548917
    endloop
  endfacet
  facet normal 1 0 0
    outer loop
      vertex 1.5 10.993186754817271 0.35453269859540226
      vertex 1.5 11.171792949974002 0.7375549201548917
      vertex 1.5 11.171792949974002 0.9895549201548914
    endloop
  endfacet
  facet normal 0 1 0
    outer loop
      vertex -1.5 11.171792949974002 0.9895549201548914
      vertex 1.5 11.171792949974002 0.9895549201548914
      vertex 1.5 11.171792949974002 0.7375549201548917
    endloop
  endfacet
  facet normal 1 0 0
    outer loop
      vertex 1.5 10.575187068890443 0.003789316301983092
      vertex 1.5 10.993186754817271 0.35453269859540226
      vertex 1.5 10.575187068890443 2.2156470965339894
    endloop
  endfacet
  facet normal 1 0 0
    outer loop
      vertex 1.5 10.993186754817271 0.35453269859540226
      vertex 1.5 11.171792949974002 0.9895549201548914
      vertex 1.5 10.575187068890443 2.2156470965339894
    endloop
  endfacet
  facet normal 0 0.8991979823426894 0.43754198490069063
    outer loop
      vertex -1.5 10.575187068890443 2.2156470965339894
      vertex 1.5 10.575187068890443 2.2156470965339894
      vertex 1.5 11.171792949974002 0.9895549201548914
    endloop
  endfacet
  facet normal -0.6324740773131049 -0.632474077313105 -0.4471611376829087
    outer loop
      vertex -10.575187068890443 -4.380385908567001 4.220000000000001
      vertex -4.380385908567 -10.575187068890443 4.220000000000001
      vertex -11.560042650547475 -4.788326447468186 6.19
    endloop
  endfacet
  facet normal -0.6324740773131048 -0.6324740773131045 -0.4471611376829097
    outer loop
      vertex -11.560042650547475 -4.788326447468186 6.19
      vertex -4.380385908567 -10.575187068890443 4.220000000000001
      vertex -4.788326447468187 -11.560042650547476 6.19
    endloop
  endfacet
  facet normal 0 0 1
    outer loop
      vertex -11.560042650547475 -4.788326447468186 6.19
      vertex -4.788326447468187 -11.560042650547476 6.19
      vertex -11.560042650547476 4.788326447468186 6.19
    endloop
  endfacet
  facet normal -0.8944534179856023 -1.6693137056605373e-16 -0.4471611376829088
    outer loop
      vertex -10.575187068890443 -4.380385908567001 4.220000000000001
      vertex -11.560042650547475 -4.788326447468186 6.19
      vertex -11.560042650547476 4.788326447468186 6.19
    endloop
  endfacet
  facet normal 1.6741643283106514e-16 -0.894453417985602 -0.4471611376829094
    outer loop
      vertex -4.380385908567 -10.575187068890443 4.220000000000001
      vertex 4.788326447468186 -11.560042650547475 6.19
      vertex -4.788326447468187 -11.560042650547476 6.19
    endloop
  endfacet
  facet normal 0 0 1
    outer loop
      vertex -4.788326447468187 -11.560042650547476 6.19
      vertex 4.788326447468186 -11.560042650547475 6.19
      vertex -4.788326447468186 11.560042650547475 6.19
    endloop
  endfacet
  facet normal -0.894453417985602 0 -0.4471611376829095
    outer loop
      vertex -10.575187068890443 -4.380385908567001 4.220000000000001
      vertex -11.560042650547476 4.788326447468186 6.19
      vertex -10.575187068890443 4.380385908567 4.220000000000001
    endloop
  endfacet
  facet normal 0 0 1
    outer loop
      vertex -4.788326447468187 -11.560042650547476 6.19
      vertex -4.788326447468186 11.560042650547475 6.19
      vertex -11.560042650547476 4.788326447468186 6.19
    endloop
  endfacet
  facet normal -0.6324740773131048 0.6324740773131047 -0.4471611376829094
    outer loop
      vertex -10.575187068890443 4.380385908567 4.220000000000001
      vertex -11.560042650547476 4.788326447468186 6.19
      vertex -4.380385908567001 10.575187068890443 4.220000000000001
    endloop
  endfacet
  facet normal -0.6324740773131048 0.632474077313105 -0.4471611376829088
    outer loop
      vertex -11.560042650547476 4.788326447468186 6.19
      vertex -4.788326447468186 11.560042650547475 6.19
      vertex -4.380385908567001 10.575187068890443 4.220000000000001
    endloop
  endfacet
  facet normal 0 0.8944534179856023 -0.4471611376829088
    outer loop
      vertex -4.380385908567001 10.575187068890443 4.220000000000001
      vertex -4.788326447468186 11.560042650547475 6.19
      vertex 4.380385908567 10.575187068890443 4.220000000000001
    endloop
  endfacet
  facet normal 0 -0.8944534179856023 -0.4471611376829088
    outer loop
      vertex -4.380385908567 -10.575187068890443 4.220000000000001
      vertex 4.380385908567001 -10.575187068890443 4.220000000000001
      vertex 4.788326447468186 -11.560042650547475 6.19
    endloop
  endfacet
  facet normal 0.6324740773131048 -0.632474077313105 -0.44716113768290866
    outer loop
      vertex 4.380385908567001 -10.575187068890443 4.220000000000001
      vertex 11.560042650547476 -4.788326447468186 6.19
      vertex 4.788326447468186 -11.560042650547475 6.19
    endloop
  endfacet
  facet normal 0.6324740773131048 -0.6324740773131047 -0.4471611376829094
    outer loop
      vertex 4.380385908567001 -10.575187068890443 4.220000000000001
      vertex 10.575187068890443 -4.380385908567 4.220000000000001
      vertex 11.560042650547476 -4.788326447468186 6.19
    endloop
  endfacet
  facet normal 0 0 1
    outer loop
      vertex 4.788326447468186 -11.560042650547475 6.19
      vertex 11.560042650547476 -4.788326447468186 6.19
      vertex 4.788326447468187 11.560042650547476 6.19
    endloop
  endfacet
  facet normal 0.8944534179856021 1.6693137056605368e-16 -0.44716113768290955
    outer loop
      vertex 10.575187068890443 -4.380385908567 4.220000000000001
      vertex 11.560042650547475 4.788326447468186 6.19
      vertex 11.560042650547476 -4.788326447468186 6.19
    endloop
  endfacet
  facet normal 0 0 1
    outer loop
      vertex -4.788326447468186 11.560042650547475 6.19
      vertex 4.788326447468186 -11.560042650547475 6.19
      vertex 4.788326447468187 11.560042650547476 6.19
    endloop
  endfacet
  facet normal -1.6591062284441409e-16 0.894453417985602 -0.4471611376829094
    outer loop
      vertex -4.788326447468186 11.560042650547475 6.19
      vertex 4.788326447468187 11.560042650547476 6.19
      vertex 4.380385908567 10.575187068890443 4.220000000000001
    endloop
  endfacet
  facet normal 0.8944534179856023 0 -0.4471611376829088
    outer loop
      vertex 10.575187068890443 -4.380385908567 4.220000000000001
      vertex 10.575187068890443 4.380385908567001 4.220000000000001
      vertex 11.560042650547475 4.788326447468186 6.19
    endloop
  endfacet
  facet normal 0 0 1
    outer loop
      vertex 11.560042650547476 -4.788326447468186 6.19
      vertex 11.560042650547475 4.788326447468186 6.19
      vertex 4.788326447468187 11.560042650547476 6.19
    endloop
  endfacet
  facet normal 0.6324740773131048 0.6324740773131045 -0.4471611376829096
    outer loop
      vertex 4.380385908567 10.575187068890443 4.220000000000001
      vertex 4.788326447468187 11.560042650547476 6.19
      vertex 11.560042650547475 4.788326447468186 6.19
    endloop
  endfacet
  facet normal 0.6324740773131049 0.632474077313105 -0.4471611376829085
    outer loop
      vertex 4.380385908567 10.575187068890443 4.220000000000001
      vertex 11.560042650547475 4.788326447468186 6.19
      vertex 10.575187068890443 4.380385908567001 4.220000000000001
    endloop
  endfacet
  facet normal 0 0 -1
    outer loop
      vertex -10.575187068890443 -4.380385908567001 0
      vertex -9.8565 -3.5805 0
      vertex -4.380385908567 -10.575187068890443 0
    endloop
  endfacet
  facet normal 0 0 -1
    outer loop
      vertex -4.380385908567 -10.575187068890443 0
      vertex -9.8565 -3.5805 0
      vertex -9.0565 -3.5805 0
    endloop
  endfacet
  facet normal -0.7071067811865476 -0.7071067811865477 0
    outer loop
      vertex -10.575187068890443 -4.380385908567001 0
      vertex -4.380385908567 -10.575187068890443 0
      vertex -10.575187068890443 -4.380385908567001 4.220000000000001
    endloop
  endfacet
  facet normal -0.7071067811865476 -0.7071067811865477 0
    outer loop
      vertex -4.380385908567 -10.575187068890443 0
      vertex -4.380385908567 -10.575187068890443 4.220000000000001
      vertex -10.575187068890443 -4.380385908567001 4.220000000000001
    endloop
  endfacet
  facet normal 0 0 -1
    outer loop
      vertex -10.575187068890443 -4.380385908567001 0
      vertex -10.5665 -1.5 0
      vertex -9.8565 -3.5805 0
    endloop
  endfacet
  facet normal -1 0 0
    outer loop
      vertex -10.575187068890443 -4.380385908567001 0
      vertex -10.575187068890443 -3.5805 2.39
      vertex -10.575187068890443 -1.5 0.003789316301983092
    endloop
  endfacet
  facet normal 0 0 -1
    outer loop
      vertex -10.575187068890443 -4.380385908567001 0
      vertex -10.57067113757408 -1.5 0
      vertex -10.5665 -1.5 0
    endloop
  endfacet
  facet normal 0 0 -1
    outer loop
      vertex -10.575187068890443 -4.380385908567001 0
      vertex -10.57067113757408 1.5 0
      vertex -10.57067113757408 -1.5 0
    endloop
  endfacet
  facet normal -1 0 0
    outer loop
      vertex -10.575187068890443 -4.380385908567001 0
      vertex -10.575187068890443 -1.5 0.003789316301983092
      vertex -10.575187068890443 1.5 0.003789316301983092
    endloop
  endfacet
  facet normal 0 0 -1
    outer loop
      vertex -10.5665 -1.5 0
      vertex -10.5665 1.5 0
      vertex -9.8565 -3.5805 0
    endloop
  endfacet
  facet normal -1 0 0
    outer loop
      vertex -10.575187068890443 -1.5 0.003789316301983092
      vertex -10.575187068890443 -3.5805 2.39
      vertex -10.575187068890443 -1.5 2.2156470965339894
    endloop
  endfacet
  facet normal 0 0 -1
    outer loop
      vertex -4.380385908567 -10.575187068890443 0
      vertex -9.0565 -3.5805 0
      vertex -4.380385908567001 10.575187068890443 0
    endloop
  endfacet
  facet normal -1 0 0
    outer loop
      vertex -10.575187068890443 -4.380385908567001 0
      vertex -10.575187068890443 -4.380385908567001 4.220000000000001
      vertex -10.575187068890443 -3.5805 2.39
    endloop
  endfacet
  facet normal -1 0 0
    outer loop
      vertex -10.575187068890443 -1.5 2.2156470965339894
      vertex -10.575187068890443 -3.5805 2.39
      vertex -10.575187068890443 3.5805 2.39
    endloop
  endfacet
  facet normal 0 0 -1
    outer loop
      vertex -4.380385908567 -10.575187068890443 0
      vertex -3.5805 -9.8565 0
      vertex -1.5 -10.5665 0
    endloop
  endfacet
  facet normal 0 0 -1
    outer loop
      vertex -4.380385908567 -10.575187068890443 0
      vertex -3.5805 -9.0565 0
      vertex -3.5805 -9.8565 0
    endloop
  endfacet
  facet normal 0 -1 0
    outer loop
      vertex -4.380385908567 -10.575187068890443 0
      vertex -1.5 -10.575187068890443 2.2156470965339894
      vertex -3.5805 -10.575187068890443 2.39
    endloop
  endfacet
  facet normal 0 0 -1
    outer loop
      vertex -4.380385908567 -10.575187068890443 0
      vertex -1.5 -10.5665 0
      vertex -1.5 -10.57067113757408 0
    endloop
  endfacet
  facet normal 0 -1 0
    outer loop
      vertex -4.380385908567 -10.575187068890443 0
      vertex 1.5 -10.575187068890443 0.003789316301983092
      vertex -1.5 -10.575187068890443 0.003789316301983092
    endloop
  endfacet
  facet normal 0 0 -1
    outer loop
      vertex -4.380385908567 -10.575187068890443 0
      vertex -1.5 -10.57067113757408 0
      vertex 1.5 -10.57067113757408 0
    endloop
  endfacet
  facet normal 0 -1 0
    outer loop
      vertex -4.380385908567 -10.575187068890443 0
      vertex -1.5 -10.575187068890443 0.003789316301983092
      vertex -1.5 -10.575187068890443 2.2156470965339894
    endloop
  endfacet
  facet normal 0 0 -1
    outer loop
      vertex -1.5 -10.5665 0
      vertex -3.5805 -9.8565 0
      vertex 3.5805 -9.8565 0
    endloop
  endfacet
  facet normal 0 -1 0
    outer loop
      vertex -4.380385908567 -10.575187068890443 0
      vertex -3.5805 -10.575187068890443 2.39
      vertex -3.5805 -10.575187068890443 3.39
    endloop
  endfacet
  facet normal 0 -1 0
    outer loop
      vertex -4.380385908567 -10.575187068890443 0
      vertex -3.5805 -10.575187068890443 3.39
      vertex -4.380385908567 -10.575187068890443 4.220000000000001
    endloop
  endfacet
  facet normal 0 -1 0
    outer loop
      vertex -1.5 -10.575187068890443 2.2156470965339894
      vertex 1.5 -10.575187068890443 2.2156470965339894
      vertex -3.5805 -10.575187068890443 2.39
    endloop
  endfacet
  facet normal 0 0 -1
    outer loop
      vertex -4.380385908567 -10.575187068890443 0
      vertex 4.380385908567 10.575187068890443 0
      vertex -3.5805 -9.0565 0
    endloop
  endfacet
  facet normal -1 0 0
    outer loop
      vertex -10.575187068890443 -4.380385908567001 4.220000000000001
      vertex -10.575187068890443 -3.5805 3.39
      vertex -10.575187068890443 -3.5805 2.39
    endloop
  endfacet
  facet normal -1 0 0
    outer loop
      vertex -10.575187068890443 -4.380385908567001 4.220000000000001
      vertex -10.575187068890443 4.380385908567 4.220000000000001
      vertex -10.575187068890443 -3.5805 3.39
    endloop
  endfacet
  facet normal 0 -1 0
    outer loop
      vertex -4.380385908567 -10.575187068890443 4.220000000000001
      vertex -3.5805 -10.575187068890443 3.39
      vertex 3.5805 -10.575187068890443 3.39
    endloop
  endfacet
  facet normal 0 0 -1
    outer loop
      vertex -10.575187068890443 -4.380385908567001 0
      vertex -10.575187068890443 4.380385908567 0
      vertex -10.57067113757408 1.5 0
    endloop
  endfacet
  facet normal -1 0 0
    outer loop
      vertex -10.575187068890443 -4.380385908567001 0
      vertex -10.575187068890443 1.5 0.003789316301983092
      vertex -10.575187068890443 4.380385908567 0
    endloop
  endfacet
  facet normal 0 0 -1
    outer loop
      vertex -10.5665 1.5 0
      vertex -10.575187068890443 4.380385908567 0
      vertex -9.8565 -3.5805 0
    endloop
  endfacet
  facet normal 0 0 -1
    outer loop
      vertex -10.57067113757408 1.5 0
      vertex -10.575187068890443 4.380385908567 0
      vertex -10.5665 1.5 0
    endloop
  endfacet
  facet normal -1 0 0
    outer loop
      vertex -10.575187068890443 1.5 0.003789316301983092
      vertex -10.575187068890443 1.5 2.2156470965339894
      vertex -10.575187068890443 4.380385908567 0
    endloop
  endfacet
  facet normal 0 0 -1
    outer loop
      vertex -10.575187068890443 4.380385908567 0
      vertex -9.8565 3.5805 0
      vertex -9.8565 -3.5805 0
    endloop
  endfacet
  facet normal -1 0 0
    outer loop
      vertex -10.575187068890443 4.380385908567 0
      vertex -10.575187068890443 1.5 2.2156470965339894
      vertex -10.575187068890443 3.5805 2.39
    endloop
  endfacet
  facet normal 0 0 -1
    outer loop
      vertex -4.380385908567001 10.575187068890443 0
      vertex -9.0565 -3.5805 0
      vertex -9.0565 3.5805 0
    endloop
  endfacet
  facet normal -1 0 0
    outer loop
      vertex -10.575187068890443 -1.5 2.2156470965339894
      vertex -10.575187068890443 3.5805 2.39
      vertex -10.575187068890443 1.5 2.2156470965339894
    endloop
  endfacet
  facet normal -1 0 0
    outer loop
      vertex -10.575187068890443 4.380385908567 0
      vertex -10.575187068890443 3.5805 2.39
      vertex -10.575187068890443 3.5805 3.39
    endloop
  endfacet
  facet normal -1 0 0
    outer loop
      vertex -10.575187068890443 4.380385908567 0
      vertex -10.575187068890443 3.5805 3.39
      vertex -10.575187068890443 4.380385908567 4.220000000000001
    endloop
  endfacet
  facet normal 0 0 -1
    outer loop
      vertex -10.575187068890443 4.380385908567 0
      vertex -4.380385908567001 10.575187068890443 0
      vertex -9.8565 3.5805 0
    endloop
  endfacet
  facet normal 0 0 -1
    outer loop
      vertex -4.380385908567001 10.575187068890443 0
      vertex -9.0565 3.5805 0
      vertex -9.8565 3.5805 0
    endloop
  endfacet
  facet normal -0.7071067811865477 0.7071067811865476 4.647349695996826e-17
    outer loop
      vertex -10.575187068890443 4.380385908567 0
      vertex -4.380385908567001 10.575187068890443 4.220000000000001
      vertex -4.380385908567001 10.575187068890443 0
    endloop
  endfacet
  facet normal -0.7071067811865477 0.7071067811865476 0
    outer loop
      vertex -10.575187068890443 4.380385908567 0
      vertex -10.575187068890443 4.380385908567 4.220000000000001
      vertex -4.380385908567001 10.575187068890443 4.220000000000001
    endloop
  endfacet
  facet normal 0 0 -1
    outer loop
      vertex -4.380385908567 -10.575187068890443 0
      vertex -3.5805 9.8565 0
      vertex -3.5805 9.0565 0
    endloop
  endfacet
  facet normal 0 0 -1
    outer loop
      vertex -4.380385908567 -10.575187068890443 0
      vertex -4.380385908567001 10.575187068890443 0
      vertex -3.5805 9.8565 0
    endloop
  endfacet
  facet normal 0 0 -1
    outer loop
      vertex -4.380385908567 -10.575187068890443 0
      vertex -3.5805 9.0565 0
      vertex 3.5805 9.0565 0
    endloop
  endfacet
  facet normal 0 0 -1
    outer loop
      vertex -4.380385908567001 10.575187068890443 0
      vertex -1.5 10.5665 0
      vertex -3.5805 9.8565 0
    endloop
  endfacet
  facet normal 0 1 0
    outer loop
      vertex -4.380385908567001 10.575187068890443 0
      vertex -3.5805 10.575187068890443 2.39
      vertex -1.5 10.575187068890443 2.2156470965339894
    endloop
  endfacet
  facet normal 0 0 -1
    outer loop
      vertex -4.380385908567001 10.575187068890443 0
      vertex -1.5 10.57067113757408 0
      vertex -1.5 10.5665 0
    endloop
  endfacet
  facet normal 0 1 0
    outer loop
      vertex -4.380385908567001 10.575187068890443 0
      vertex -1.5 10.575187068890443 2.2156470965339894
      vertex -1.5 10.575187068890443 0.003789316301983092
    endloop
  endfacet
  facet normal 0 0 -1
    outer loop
      vertex -1.5 10.5665 0
      vertex 1.5 10.5665 0
      vertex -3.5805 9.8565 0
    endloop
  endfacet
  facet normal 0 0 -1
    outer loop
      vertex -4.380385908567001 10.575187068890443 0
      vertex 4.380385908567 10.575187068890443 0
      vertex -1.5 10.57067113757408 0
    endloop
  endfacet
  facet normal 0 1 0
    outer loop
      vertex -4.380385908567001 10.575187068890443 0
      vertex -1.5 10.575187068890443 0.003789316301983092
      vertex 4.380385908567 10.575187068890443 0
    endloop
  endfacet
  facet normal 0 1 0
    outer loop
      vertex -4.380385908567001 10.575187068890443 0
      vertex -4.380385908567001 10.575187068890443 4.220000000000001
      vertex -3.5805 10.575187068890443 2.39
    endloop
  endfacet
  facet normal 0 1 0
    outer loop
      vertex -1.5 10.575187068890443 2.2156470965339894
      vertex -3.5805 10.575187068890443 2.39
      vertex 3.5805 10.575187068890443 2.39
    endloop
  endfacet
  facet normal -1 0 0
    outer loop
      vertex -10.575187068890443 4.380385908567 4.220000000000001
      vertex -10.575187068890443 3.5805 3.39
      vertex -10.575187068890443 -3.5805 3.39
    endloop
  endfacet
  facet normal 0 1 0
    outer loop
      vertex -4.380385908567001 10.575187068890443 4.220000000000001
      vertex -3.5805 10.575187068890443 3.39
      vertex -3.5805 10.575187068890443 2.39
    endloop
  endfacet
  facet normal 0 1 0
    outer loop
      vertex -4.380385908567001 10.575187068890443 4.220000000000001
      vertex 4.380385908567 10.575187068890443 4.220000000000001
      vertex -3.5805 10.575187068890443 3.39
    endloop
  endfacet
  facet normal 0 -1 0
    outer loop
      vertex -4.380385908567 -10.575187068890443 0
      vertex 4.380385908567001 -10.575187068890443 0
      vertex 1.5 -10.575187068890443 0.003789316301983092
    endloop
  endfacet
  facet normal 0 0 -1
    outer loop
      vertex -4.380385908567 -10.575187068890443 0
      vertex 1.5 -10.57067113757408 0
      vertex 4.380385908567001 -10.575187068890443 0
    endloop
  endfacet
  facet normal 0 0 -1
    outer loop
      vertex -1.5 -10.5665 0
      vertex 3.5805 -9.8565 0
      vertex 1.5 -10.5665 0
    endloop
  endfacet
  facet normal 0 0 -1
    outer loop
      vertex 1.5 -10.57067113757408 0
      vertex 1.5 -10.5665 0
      vertex 4.380385908567001 -10.575187068890443 0
    endloop
  endfacet
  facet normal 0 -1 0
    outer loop
      vertex 1.5 -10.575187068890443 0.003789316301983092
      vertex 4.380385908567001 -10.575187068890443 0
      vertex 1.5 -10.575187068890443 2.2156470965339894
    endloop
  endfacet
  facet normal 0 0 -1
    outer loop
      vertex 1.5 -10.5665 0
      vertex 3.5805 -9.8565 0
      vertex 4.380385908567001 -10.575187068890443 0
    endloop
  endfacet
  facet normal 0 -1 0
    outer loop
      vertex 4.380385908567001 -10.575187068890443 0
      vertex 3.5805 -10.575187068890443 2.39
      vertex 1.5 -10.575187068890443 2.2156470965339894
    endloop
  endfacet
  facet normal 0 -1 0
    outer loop
      vertex 1.5 -10.575187068890443 2.2156470965339894
      vertex 3.5805 -10.575187068890443 2.39
      vertex -3.5805 -10.575187068890443 2.39
    endloop
  endfacet
  facet normal 0 -1 0
    outer loop
      vertex 4.380385908567001 -10.575187068890443 0
      vertex 4.380385908567001 -10.575187068890443 4.220000000000001
      vertex 3.5805 -10.575187068890443 2.39
    endloop
  endfacet
  facet normal 0 0 -1
    outer loop
      vertex 4.380385908567 10.575187068890443 0
      vertex 3.5805 -9.0565 0
      vertex -3.5805 -9.0565 0
    endloop
  endfacet
  facet normal 0 0 -1
    outer loop
      vertex 4.380385908567001 -10.575187068890443 0
      vertex 3.5805 -9.8565 0
      vertex 4.380385908567 10.575187068890443 0
    endloop
  endfacet
  facet normal 0 0 -1
    outer loop
      vertex 4.380385908567 10.575187068890443 0
      vertex 3.5805 -9.8565 0
      vertex 3.5805 -9.0565 0
    endloop
  endfacet
  facet normal 0 0 -1
    outer loop
      vertex 4.380385908567001 -10.575187068890443 0
      vertex 9.0565 -3.5805 0
      vertex 9.8565 -3.5805 0
    endloop
  endfacet
  facet normal 0 0 -1
    outer loop
      vertex 4.380385908567001 -10.575187068890443 0
      vertex 9.8565 -3.5805 0
      vertex 10.575187068890443 -4.380385908567 0
    endloop
  endfacet
  facet normal 0.7071067811865477 -0.7071067811865476 0
    outer loop
      vertex 4.380385908567001 -10.575187068890443 0
      vertex 10.575187068890443 -4.380385908567 0
      vertex 4.380385908567001 -10.575187068890443 4.220000000000001
    endloop
  endfacet
  facet normal 0.7071067811865477 -0.7071067811865476 0
    outer loop
      vertex 10.575187068890443 -4.380385908567 0
      vertex 10.575187068890443 -4.380385908567 4.220000000000001
      vertex 4.380385908567001 -10.575187068890443 4.220000000000001
    endloop
  endfacet
  facet normal 0 0 -1
    outer loop
      vertex 4.380385908567001 -10.575187068890443 0
      vertex 9.0565 3.5805 0
      vertex 9.0565 -3.5805 0
    endloop
  endfacet
  facet normal 1 0 0
    outer loop
      vertex 10.575187068890443 -4.380385908567 0
      vertex 10.575187068890443 -1.5 2.2156470965339894
      vertex 10.575187068890443 -3.5805 2.39
    endloop
  endfacet
  facet normal 0 0 -1
    outer loop
      vertex 10.575187068890443 -4.380385908567 0
      vertex 9.8565 -3.5805 0
      vertex 9.8565 3.5805 0
    endloop
  endfacet
  facet normal 0 0 -1
    outer loop
      vertex 10.575187068890443 -4.380385908567 0
      vertex 10.5665 -1.5 0
      vertex 10.57067113757408 -1.5 0
    endloop
  endfacet
  facet normal 1 0 0
    outer loop
      vertex 10.575187068890443 -4.380385908567 0
      vertex 10.575187068890443 -1.5 0.003789316301983092
      vertex 10.575187068890443 -1.5 2.2156470965339894
    endloop
  endfacet
  facet normal 0 0 -1
    outer loop
      vertex 10.575187068890443 -4.380385908567 0
      vertex 9.8565 3.5805 0
      vertex 10.5665 -1.5 0
    endloop
  endfacet
  facet normal 0 0 -1
    outer loop
      vertex 10.575187068890443 -4.380385908567 0
      vertex 10.57067113757408 -1.5 0
      vertex 10.575187068890443 4.380385908567001 0
    endloop
  endfacet
  facet normal 1 0 0
    outer loop
      vertex 10.575187068890443 -4.380385908567 0
      vertex 10.575187068890443 4.380385908567001 0
      vertex 10.575187068890443 -1.5 0.003789316301983092
    endloop
  endfacet
  facet normal 1 0 0
    outer loop
      vertex 10.575187068890443 -4.380385908567 0
      vertex 10.575187068890443 -3.5805 2.39
      vertex 10.575187068890443 -3.5805 3.39
    endloop
  endfacet
  facet normal 1 0 0
    outer loop
      vertex 10.575187068890443 -4.380385908567 0
      vertex 10.575187068890443 -3.5805 3.39
      vertex 10.575187068890443 -4.380385908567 4.220000000000001
    endloop
  endfacet
  facet normal 1 0 0
    outer loop
      vertex 10.575187068890443 -1.5 2.2156470965339894
      vertex 10.575187068890443 1.5 2.2156470965339894
      vertex 10.575187068890443 -3.5805 2.39
    endloop
  endfacet
  facet normal 0 -1 0
    outer loop
      vertex -4.380385908567 -10.575187068890443 4.220000000000001
      vertex 3.5805 -10.575187068890443 3.39
      vertex 4.380385908567001 -10.575187068890443 4.220000000000001
    endloop
  endfacet
  facet normal 0 -1 0
    outer loop
      vertex 4.380385908567001 -10.575187068890443 4.220000000000001
      vertex 3.5805 -10.575187068890443 3.39
      vertex 3.5805 -10.575187068890443 2.39
    endloop
  endfacet
  facet normal 1 0 0
    outer loop
      vertex 10.575187068890443 -4.380385908567 4.220000000000001
      vertex 10.575187068890443 -3.5805 3.39
      vertex 10.575187068890443 3.5805 3.39
    endloop
  endfacet
  facet normal 0 0 -1
    outer loop
      vertex -4.380385908567 -10.575187068890443 0
      vertex 3.5805 9.0565 0
      vertex 4.380385908567 10.575187068890443 0
    endloop
  endfacet
  facet normal 0 0 -1
    outer loop
      vertex 1.5 10.5665 0
      vertex 3.5805 9.8565 0
      vertex -3.5805 9.8565 0
    endloop
  endfacet
  facet normal 0 0 -1
    outer loop
      vertex -1.5 10.57067113757408 0
      vertex 4.380385908567 10.575187068890443 0
      vertex 1.5 10.57067113757408 0
    endloop
  endfacet
  facet normal 0 1 0
    outer loop
      vertex -1.5 10.575187068890443 0.003789316301983092
      vertex 1.5 10.575187068890443 0.003789316301983092
      vertex 4.380385908567 10.575187068890443 0
    endloop
  endfacet
  facet normal 0 0 -1
    outer loop
      vertex 1.5 10.5665 0
      vertex 1.5 10.57067113757408 0
      vertex 4.380385908567 10.575187068890443 0
    endloop
  endfacet
  facet normal 0 1 0
    outer loop
      vertex 1.5 10.575187068890443 0.003789316301983092
      vertex 1.5 10.575187068890443 2.2156470965339894
      vertex 4.380385908567 10.575187068890443 0
    endloop
  endfacet
  facet normal 0 0 -1
    outer loop
      vertex 4.380385908567 10.575187068890443 0
      vertex 3.5805 9.0565 0
      vertex 3.5805 9.8565 0
    endloop
  endfacet
  facet normal 0 0 -1
    outer loop
      vertex 1.5 10.5665 0
      vertex 4.380385908567 10.575187068890443 0
      vertex 3.5805 9.8565 0
    endloop
  endfacet
  facet normal 0 1 0
    outer loop
      vertex 4.380385908567 10.575187068890443 0
      vertex 1.5 10.575187068890443 2.2156470965339894
      vertex 3.5805 10.575187068890443 2.39
    endloop
  endfacet
  facet normal 0 1 0
    outer loop
      vertex -1.5 10.575187068890443 2.2156470965339894
      vertex 3.5805 10.575187068890443 2.39
      vertex 1.5 10.575187068890443 2.2156470965339894
    endloop
  endfacet
  facet normal 0 1 0
    outer loop
      vertex 4.380385908567 10.575187068890443 0
      vertex 3.5805 10.575187068890443 2.39
      vertex 3.5805 10.575187068890443 3.39
    endloop
  endfacet
  facet normal 0 1 0
    outer loop
      vertex 4.380385908567 10.575187068890443 0
      vertex 3.5805 10.575187068890443 3.39
      vertex 4.380385908567 10.575187068890443 4.220000000000001
    endloop
  endfacet
  facet normal 0 0 -1
    outer loop
      vertex 4.380385908567001 -10.575187068890443 0
      vertex 4.380385908567 10.575187068890443 0
      vertex 9.0565 3.5805 0
    endloop
  endfacet
  facet normal 0 0 -1
    outer loop
      vertex 10.5665 -1.5 0
      vertex 9.8565 3.5805 0
      vertex 10.5665 1.5 0
    endloop
  endfacet
  facet normal 0 0 -1
    outer loop
      vertex 10.57067113757408 -1.5 0
      vertex 10.57067113757408 1.5 0
      vertex 10.575187068890443 4.380385908567001 0
    endloop
  endfacet
  facet normal 1 0 0
    outer loop
      vertex 10.575187068890443 -1.5 0.003789316301983092
      vertex 10.575187068890443 4.380385908567001 0
      vertex 10.575187068890443 1.5 0.003789316301983092
    endloop
  endfacet
  facet normal 0 0 -1
    outer loop
      vertex 10.5665 1.5 0
      vertex 10.575187068890443 4.380385908567001 0
      vertex 10.57067113757408 1.5 0
    endloop
  endfacet
  facet normal 1 0 0
    outer loop
      vertex 10.575187068890443 1.5 0.003789316301983092
      vertex 10.575187068890443 3.5805 2.39
      vertex 10.575187068890443 1.5 2.2156470965339894
    endloop
  endfacet
  facet normal 0 0 -1
    outer loop
      vertex 10.5665 1.5 0
      vertex 9.8565 3.5805 0
      vertex 10.575187068890443 4.380385908567001 0
    endloop
  endfacet
  facet normal 1 0 0
    outer loop
      vertex 10.575187068890443 1.5 0.003789316301983092
      vertex 10.575187068890443 4.380385908567001 0
      vertex 10.575187068890443 3.5805 2.39
    endloop
  endfacet
  facet normal 1 0 0
    outer loop
      vertex 10.575187068890443 1.5 2.2156470965339894
      vertex 10.575187068890443 3.5805 2.39
      vertex 10.575187068890443 -3.5805 2.39
    endloop
  endfacet
  facet normal 1 0 0
    outer loop
      vertex 10.575187068890443 4.380385908567001 0
      vertex 10.575187068890443 4.380385908567001 4.220000000000001
      vertex 10.575187068890443 3.5805 2.39
    endloop
  endfacet
  facet normal 0 0 -1
    outer loop
      vertex 4.380385908567 10.575187068890443 0
      vertex 9.8565 3.5805 0
      vertex 9.0565 3.5805 0
    endloop
  endfacet
  facet normal 0 0 -1
    outer loop
      vertex 4.380385908567 10.575187068890443 0
      vertex 10.575187068890443 4.380385908567001 0
      vertex 9.8565 3.5805 0
    endloop
  endfacet
  facet normal 0.7071067811865476 0.7071067811865477 -4.647349695996826e-17
    outer loop
      vertex 4.380385908567 10.575187068890443 0
      vertex 10.575187068890443 4.380385908567001 4.220000000000001
      vertex 10.575187068890443 4.380385908567001 0
    endloop
  endfacet
  facet normal 0.7071067811865476 0.7071067811865477 0
    outer loop
      vertex 4.380385908567 10.575187068890443 0
      vertex 4.380385908567 10.575187068890443 4.220000000000001
      vertex 10.575187068890443 4.380385908567001 4.220000000000001
    endloop
  endfacet
  facet normal 0 1 0
    outer loop
      vertex 4.380385908567 10.575187068890443 4.220000000000001
      vertex 3.5805 10.575187068890443 3.39
      vertex -3.5805 10.575187068890443 3.39
    endloop
  endfacet
  facet normal 1 0 0
    outer loop
      vertex 10.575187068890443 -4.380385908567 4.220000000000001
      vertex 10.575187068890443 3.5805 3.39
      vertex 10.575187068890443 4.380385908567001 4.220000000000001
    endloop
  endfacet
  facet normal 1 0 0
    outer loop
      vertex 10.575187068890443 4.380385908567001 4.220000000000001
      vertex 10.575187068890443 3.5805 3.39
      vertex 10.575187068890443 3.5805 2.39
    endloop
  endfacet
  facet normal 0 1 0
    outer loop
      vertex 9.0565 -3.5805 3.39
      vertex 9.8565 -3.5805 0
      vertex 9.0565 -3.5805 0
    endloop
  endfacet
  facet normal -1 0 0
    outer loop
      vertex 9.8565 -3.5805 2.39
      vertex 9.8565 3.5805 0
      vertex 9.8565 -3.5805 0
    endloop
  endfacet
  facet normal 0 1 0
    outer loop
      vertex 9.0565 -3.5805 3.39
      vertex 9.8565 -3.5805 2.39
      vertex 9.8565 -3.5805 0
    endloop
  endfacet
  facet normal 0 1 0
    outer loop
      vertex 9.8565 -3.5805 2.39
      vertex 9.0565 -3.5805 3.39
      vertex 9.8565 -3.5805 3.39
    endloop
  endfacet
  facet normal 0 1 0
    outer loop
      vertex 9.8565 -3.5805 2.39
      vertex 9.8565 -3.5805 3.39
      vertex 10.575187068890443 -3.5805 3.39
    endloop
  endfacet
  facet normal 0 1 0
    outer loop
      vertex 9.8565 -3.5805 2.39
      vertex 10.575187068890443 -3.5805 3.39
      vertex 10.575187068890443 -3.5805 2.39
    endloop
  endfacet
  facet normal 1 0 0
    outer loop
      vertex 9.0565 -3.5805 3.39
      vertex 9.0565 -3.5805 0
      vertex 9.0565 3.5805 3.39
    endloop
  endfacet
  facet normal 0 0 1
    outer loop
      vertex 9.8565 -3.5805 2.39
      vertex 10.575187068890443 -3.5805 2.39
      vertex 10.575187068890443 3.5805 2.39
    endloop
  endfacet
  facet normal 0 0 -1
    outer loop
      vertex 9.0565 -3.5805 3.39
      vertex 9.0565 3.5805 3.39
      vertex 9.8565 -3.5805 3.39
    endloop
  endfacet
  facet normal 0 0 -1
    outer loop
      vertex 9.8565 -3.5805 3.39
      vertex 10.575187068890443 3.5805 3.39
      vertex 10.575187068890443 -3.5805 3.39
    endloop
  endfacet
  facet normal 1 0 0
    outer loop
      vertex 9.0565 3.5805 3.39
      vertex 9.0565 -3.5805 0
      vertex 9.0565 3.5805 0
    endloop
  endfacet
  facet normal 0 -1 0
    outer loop
      vertex 9.8565 3.5805 2.39
      vertex 9.0565 3.5805 0
      vertex 9.8565 3.5805 0
    endloop
  endfacet
  facet normal -1 0 0
    outer loop
      vertex 9.8565 -3.5805 2.39
      vertex 9.8565 3.5805 2.39
      vertex 9.8565 3.5805 0
    endloop
  endfacet
  facet normal 0 0 1
    outer loop
      vertex 9.8565 -3.5805 2.39
      vertex 10.575187068890443 3.5805 2.39
      vertex 9.8565 3.5805 2.39
    endloop
  endfacet
  facet normal 0 -1 0
    outer loop
      vertex 9.8565 3.5805 2.39
      vertex 9.0565 3.5805 3.39
      vertex 9.0565 3.5805 0
    endloop
  endfacet
  facet normal 0 -1 0
    outer loop
      vertex 9.8565 3.5805 2.39
      vertex 10.575187068890443 3.5805 2.39
      vertex 9.8565 3.5805 3.39
    endloop
  endfacet
  facet normal 0 -1 0
    outer loop
      vertex 9.8565 3.5805 2.39
      vertex 9.8565 3.5805 3.39
      vertex 9.0565 3.5805 3.39
    endloop
  endfacet
  facet normal 0 -1 0
    outer loop
      vertex 9.8565 3.5805 3.39
      vertex 10.575187068890443 3.5805 2.39
      vertex 10.575187068890443 3.5805 3.39
    endloop
  endfacet
  facet normal 0 0 -1
    outer loop
      vertex 9.8565 -3.5805 3.39
      vertex 9.0565 3.5805 3.39
      vertex 9.8565 3.5805 3.39
    endloop
  endfacet
  facet normal 0 0 -1
    outer loop
      vertex 9.8565 -3.5805 3.39
      vertex 9.8565 3.5805 3.39
      vertex 10.575187068890443 3.5805 3.39
    endloop
  endfacet
  facet normal 1 0 0
    outer loop
      vertex -3.5805 9.8565 2.39
      vertex -3.5805 9.0565 0
      vertex -3.5805 9.8565 0
    endloop
  endfacet
  facet normal 0 1 0
    outer loop
      vertex -3.5805 9.0565 3.39
      vertex 3.5805 9.0565 0
      vertex -3.5805 9.0565 0
    endloop
  endfacet
  facet normal 1 0 0
    outer loop
      vertex -3.5805 9.8565 2.39
      vertex -3.5805 9.0565 3.39
      vertex -3.5805 9.0565 0
    endloop
  endfacet
  facet normal 1 0 0
    outer loop
      vertex -3.5805 9.8565 2.39
      vertex -3.5805 10.575187068890443 2.39
      vertex -3.5805 9.8565 3.39
    endloop
  endfacet
  facet normal 1 0 0
    outer loop
      vertex -3.5805 9.8565 2.39
      vertex -3.5805 9.8565 3.39
      vertex -3.5805 9.0565 3.39
    endloop
  endfacet
  facet normal 1 0 0
    outer loop
      vertex -3.5805 9.8565 3.39
      vertex -3.5805 10.575187068890443 2.39
      vertex -3.5805 10.575187068890443 3.39
    endloop
  endfacet
  facet normal 0 -1 0
    outer loop
      vertex -3.5805 9.8565 2.39
      vertex -3.5805 9.8565 0
      vertex 3.5805 9.8565 2.39
    endloop
  endfacet
  facet normal 0 0 1
    outer loop
      vertex -3.5805 9.8565 2.39
      vertex 3.5805 9.8565 2.39
      vertex -3.5805 10.575187068890443 2.39
    endloop
  endfacet
  facet normal 0 0 -1
    outer loop
      vertex -3.5805 9.0565 3.39
      vertex -3.5805 9.8565 3.39
      vertex 3.5805 9.8565 3.39
    endloop
  endfacet
  facet normal 0 0 -1
    outer loop
      vertex -3.5805 9.8565 3.39
      vertex -3.5805 10.575187068890443 3.39
      vertex 3.5805 9.8565 3.39
    endloop
  endfacet
  facet normal 0 -1 0
    outer loop
      vertex 3.5805 9.8565 2.39
      vertex -3.5805 9.8565 0
      vertex 3.5805 9.8565 0
    endloop
  endfacet
  facet normal -1 0 0
    outer loop
      vertex 3.5805 9.0565 3.39
      vertex 3.5805 9.8565 0
      vertex 3.5805 9.0565 0
    endloop
  endfacet
  facet normal 0 1 0
    outer loop
      vertex -3.5805 9.0565 3.39
      vertex 3.5805 9.0565 3.39
      vertex 3.5805 9.0565 0
    endloop
  endfacet
  facet normal 0 0 1
    outer loop
      vertex 3.5805 9.8565 2.39
      vertex 3.5805 10.575187068890443 2.39
      vertex -3.5805 10.575187068890443 2.39
    endloop
  endfacet
  facet normal -1 0 0
    outer loop
      vertex 3.5805 9.0565 3.39
      vertex 3.5805 9.8565 2.39
      vertex 3.5805 9.8565 0
    endloop
  endfacet
  facet normal -1 0 0
    outer loop
      vertex 3.5805 9.8565 2.39
      vertex 3.5805 9.0565 3.39
      vertex 3.5805 9.8565 3.39
    endloop
  endfacet
  facet normal -1 0 0
    outer loop
      vertex 3.5805 9.8565 2.39
      vertex 3.5805 9.8565 3.39
      vertex 3.5805 10.575187068890443 3.39
    endloop
  endfacet
  facet normal -1 0 0
    outer loop
      vertex 3.5805 9.8565 2.39
      vertex 3.5805 10.575187068890443 3.39
      vertex 3.5805 10.575187068890443 2.39
    endloop
  endfacet
  facet normal 0 0 -1
    outer loop
      vertex -3.5805 9.0565 3.39
      vertex 3.5805 9.8565 3.39
      vertex 3.5805 9.0565 3.39
    endloop
  endfacet
  facet normal 0 0 -1
    outer loop
      vertex 3.5805 9.8565 3.39
      vertex -3.5805 10.575187068890443 3.39
      vertex 3.5805 10.575187068890443 3.39
    endloop
  endfacet
  facet normal 0 1 0
    outer loop
      vertex -9.8565 -3.5805 2.39
      vertex -9.0565 -3.5805 0
      vertex -9.8565 -3.5805 0
    endloop
  endfacet
  facet normal -1 0 0
    outer loop
      vertex -9.0565 -3.5805 3.39
      vertex -9.0565 3.5805 0
      vertex -9.0565 -3.5805 0
    endloop
  endfacet
  facet normal 0 1 0
    outer loop
      vertex -9.8565 -3.5805 2.39
      vertex -9.0565 -3.5805 3.39
      vertex -9.0565 -3.5805 0
    endloop
  endfacet
  facet normal 0 1 0
    outer loop
      vertex -9.8565 -3.5805 3.39
      vertex -10.575187068890443 -3.5805 2.39
      vertex -10.575187068890443 -3.5805 3.39
    endloop
  endfacet
  facet normal 0 1 0
    outer loop
      vertex -9.8565 -3.5805 2.39
      vertex -10.575187068890443 -3.5805 2.39
      vertex -9.8565 -3.5805 3.39
    endloop
  endfacet
  facet normal 0 1 0
    outer loop
      vertex -9.8565 -3.5805 2.39
      vertex -9.8565 -3.5805 3.39
      vertex -9.0565 -3.5805 3.39
    endloop
  endfacet
  facet normal 1 0 0
    outer loop
      vertex -9.8565 -3.5805 2.39
      vertex -9.8565 -3.5805 0
      vertex -9.8565 3.5805 2.39
    endloop
  endfacet
  facet normal 0 0 1
    outer loop
      vertex -9.8565 -3.5805 2.39
      vertex -9.8565 3.5805 2.39
      vertex -10.575187068890443 -3.5805 2.39
    endloop
  endfacet
  facet normal 0 0 -1
    outer loop
      vertex -9.8565 -3.5805 3.39
      vertex -10.575187068890443 -3.5805 3.39
      vertex -9.8565 3.5805 3.39
    endloop
  endfacet
  facet normal 0 0 -1
    outer loop
      vertex -9.8565 -3.5805 3.39
      vertex -9.8565 3.5805 3.39
      vertex -9.0565 -3.5805 3.39
    endloop
  endfacet
  facet normal 1 0 0
    outer loop
      vertex -9.8565 3.5805 2.39
      vertex -9.8565 -3.5805 0
      vertex -9.8565 3.5805 0
    endloop
  endfacet
  facet normal 0 -1 0
    outer loop
      vertex -9.0565 3.5805 3.39
      vertex -9.8565 3.5805 0
      vertex -9.0565 3.5805 0
    endloop
  endfacet
  facet normal -1 0 0
    outer loop
      vertex -9.0565 -3.5805 3.39
      vertex -9.0565 3.5805 3.39
      vertex -9.0565 3.5805 0
    endloop
  endfacet
  facet normal 0 0 1
    outer loop
      vertex -9.8565 3.5805 2.39
      vertex -10.575187068890443 3.5805 2.39
      vertex -10.575187068890443 -3.5805 2.39
    endloop
  endfacet
  facet normal 0 -1 0
    outer loop
      vertex -9.8565 3.5805 2.39
      vertex -9.8565 3.5805 0
      vertex -9.0565 3.5805 3.39
    endloop
  endfacet
  facet normal 0 -1 0
    outer loop
      vertex -9.8565 3.5805 2.39
      vertex -10.575187068890443 3.5805 3.39
      vertex -10.575187068890443 3.5805 2.39
    endloop
  endfacet
  facet normal 0 -1 0
    outer loop
      vertex -9.8565 3.5805 2.39
      vertex -9.8565 3.5805 3.39
      vertex -10.575187068890443 3.5805 3.39
    endloop
  endfacet
  facet normal 0 -1 0
    outer loop
      vertex -9.8565 3.5805 2.39
      vertex -9.0565 3.5805 3.39
      vertex -9.8565 3.5805 3.39
    endloop
  endfacet
  facet normal 0 0 -1
    outer loop
      vertex -9.8565 3.5805 3.39
      vertex -10.575187068890443 -3.5805 3.39
      vertex -10.575187068890443 3.5805 3.39
    endloop
  endfacet
  facet normal 0 0 -1
    outer loop
      vertex -9.0565 -3.5805 3.39
      vertex -9.8565 3.5805 3.39
      vertex -9.0565 3.5805 3.39
    endloop
  endfacet
  facet normal 1 0 0
    outer loop
      vertex -3.5805 -9.0565 3.39
      vertex -3.5805 -9.8565 0
      vertex -3.5805 -9.0565 0
    endloop
  endfacet
  facet normal 0 1 0
    outer loop
      vertex -3.5805 -9.8565 2.39
      vertex 3.5805 -9.8565 0
      vertex -3.5805 -9.8565 0
    endloop
  endfacet
  facet normal 1 0 0
    outer loop
      vertex -3.5805 -9.8565 2.39
      vertex -3.5805 -9.8565 0
      vertex -3.5805 -9.0565 3.39
    endloop
  endfacet
  facet normal 1 0 0
    outer loop
      vertex -3.5805 -9.8565 2.39
      vertex -3.5805 -10.575187068890443 3.39
      vertex -3.5805 -10.575187068890443 2.39
    endloop
  endfacet
  facet normal 1 0 0
    outer loop
      vertex -3.5805 -9.8565 2.39
      vertex -3.5805 -9.8565 3.39
      vertex -3.5805 -10.575187068890443 3.39
    endloop
  endfacet
  facet normal 1 0 0
    outer loop
      vertex -3.5805 -9.8565 2.39
      vertex -3.5805 -9.0565 3.39
      vertex -3.5805 -9.8565 3.39
    endloop
  endfacet
  facet normal 0 -1 0
    outer loop
      vertex -3.5805 -9.0565 3.39
      vertex -3.5805 -9.0565 0
      vertex 3.5805 -9.0565 3.39
    endloop
  endfacet
  facet normal 0 0 1
    outer loop
      vertex -3.5805 -9.8565 2.39
      vertex -3.5805 -10.575187068890443 2.39
      vertex 3.5805 -10.575187068890443 2.39
    endloop
  endfacet
  facet normal 0 0 -1
    outer loop
      vertex -3.5805 -9.8565 3.39
      vertex 3.5805 -10.575187068890443 3.39
      vertex -3.5805 -10.575187068890443 3.39
    endloop
  endfacet
  facet normal 0 0 -1
    outer loop
      vertex -3.5805 -9.8565 3.39
      vertex -3.5805 -9.0565 3.39
      vertex 3.5805 -9.0565 3.39
    endloop
  endfacet
  facet normal 0 -1 0
    outer loop
      vertex 3.5805 -9.0565 3.39
      vertex -3.5805 -9.0565 0
      vertex 3.5805 -9.0565 0
    endloop
  endfacet
  facet normal -1 0 0
    outer loop
      vertex 3.5805 -9.8565 2.39
      vertex 3.5805 -9.0565 0
      vertex 3.5805 -9.8565 0
    endloop
  endfacet
  facet normal 0 1 0
    outer loop
      vertex -3.5805 -9.8565 2.39
      vertex 3.5805 -9.8565 2.39
      vertex 3.5805 -9.8565 0
    endloop
  endfacet
  facet normal 0 0 1
    outer loop
      vertex -3.5805 -9.8565 2.39
      vertex 3.5805 -10.575187068890443 2.39
      vertex 3.5805 -9.8565 2.39
    endloop
  endfacet
  facet normal -1 0 0
    outer loop
      vertex 3.5805 -9.8565 2.39
      vertex 3.5805 -9.0565 3.39
      vertex 3.5805 -9.0565 0
    endloop
  endfacet
  facet normal -1 0 0
    outer loop
      vertex 3.5805 -9.8565 3.39
      vertex 3.5805 -10.575187068890443 2.39
      vertex 3.5805 -10.575187068890443 3.39
    endloop
  endfacet
  facet normal -1 0 0
    outer loop
      vertex 3.5805 -9.8565 2.39
      vertex 3.5805 -10.575187068890443 2.39
      vertex 3.5805 -9.8565 3.39
    endloop
  endfacet
  facet normal -1 0 0
    outer loop
      vertex 3.5805 -9.8565 2.39
      vertex 3.5805 -9.8565 3.39
      vertex 3.5805 -9.0565 3.39
    endloop
  endfacet
  facet normal 0 0 -1
    outer loop
      vertex -3.5805 -9.8565 3.39
      vertex 3.5805 -9.8565 3.39
      vertex 3.5805 -10.575187068890443 3.39
    endloop
  endfacet
  facet normal 0 0 -1
    outer loop
      vertex -3.5805 -9.8565 3.39
      vertex 3.5805 -9.0565 3.39
      vertex 3.5805 -9.8565 3.39
    endloop
  endfacet
endsolid OpenSCAD_Model
